<svg xmlns="http://www.w3.org/2000/svg" width="122" height="36" fill="none"><path d="M41.542 26.066H40.59l-.8.776.02.31.474 6.849-7.361-2.879-3.542-1.384c-1.855.389-3.822.6-5.859.6-11.097 0-20.096-6.21-20.096-13.872S12.421 2.595 23.521 2.595c5.45 0 10.39 1.498 14.008 3.928h3.099C36.498 2.561 29.963 0 22.606 0 10.123 0 0 7.371 0 16.466s10.123 16.466 22.61 16.466c2.365 0 4.643-.265 6.785-.756L41.545 36l-1.24-8.935 1.237-1Z" fill="#6FD1D2"/><path d="M16.212 18.128c.023 1.253 1.163 1.758 2.392 1.758.9 0 2.041-.325 2.041-1.335 0-.869-1.294-1.172-3.532-1.616-1.8-.364-3.6-.949-3.6-2.788 0-2.666 2.502-3.354 4.94-3.354 2.48 0 4.763.768 5.005 3.333h-2.966c-.087-1.11-1.01-1.414-2.129-1.414-.702 0-1.733.122-1.733.97 0 1.031 1.756 1.172 3.533 1.555 1.822.383 3.6.99 3.6 2.93 0 2.745-2.591 3.636-5.18 3.636-2.634 0-5.202-.91-5.335-3.677h2.964v.002ZM36.651 25.199h-3.117v-4.99h-.043c-.725 1.133-2.218 1.596-3.579 1.596-2.085 0-4.806-1.393-4.806-5.433 0-2.868 1.646-5.575 5.092-5.575 1.404 0 2.744.465 3.446 1.616h.044V11.08h2.963V25.2Zm-5.73-5.555c2.019 0 2.72-1.576 2.72-3.293 0-1.638-.701-3.395-2.656-3.395-2.02 0-2.767 1.656-2.767 3.352.002 1.68.66 3.336 2.703 3.336ZM49.647 21.523h-2.964v-1.454h-.066c-.791 1.172-2.152 1.738-3.469 1.738-3.313 0-4.148-1.717-4.148-4.303v-6.425h3.117v5.898c0 1.718.549 2.566 1.998 2.566 1.69 0 2.415-.87 2.415-2.99v-5.474h3.117v10.444ZM52.114 14.293c.176-2.688 2.788-3.496 5.335-3.496 2.262 0 4.983.465 4.983 2.97V19.2c0 .949.11 1.898.395 2.323h-3.16a4.026 4.026 0 0 1-.22-1.01c-.987.949-2.437 1.292-3.818 1.292-2.152 0-3.862-.99-3.862-3.131 0-2.363 1.932-2.93 3.862-3.171 1.91-.264 3.688-.203 3.688-1.375 0-1.233-.921-1.414-2.019-1.414-1.184 0-1.953.444-2.063 1.576h-3.12v.003Zm7.201 2.119c-.526.425-1.624.444-2.59.606-.966.18-1.844.484-1.844 1.534 0 1.07.901 1.334 1.91 1.334 2.437 0 2.524-1.778 2.524-2.403v-1.071ZM73.173 20.188h-.044c-.725 1.132-1.998 1.616-3.446 1.616-3.423 0-5.092-2.706-5.092-5.595 0-2.807 1.69-5.414 5.026-5.414 1.34 0 2.657.526 3.36 1.555h.043V7.1h3.116v14.422h-2.963v-1.334Zm-2.721-7.23c-2.042 0-2.744 1.616-2.744 3.333 0 1.637.811 3.354 2.744 3.354 2.062 0 2.677-1.656 2.677-3.373 0-1.698-.658-3.314-2.677-3.314ZM78.717 7.1h3.117v5.433h.066c.791-1.172 2.152-1.738 3.316-1.738 3.315 0 4.148 1.717 4.148 4.303v6.424h-3.117v-5.898c0-1.717-.549-2.565-1.999-2.565-1.69 0-2.414.869-2.414 2.99v5.473h-3.117V7.1ZM94.529 16.999c.087 1.818 1.054 2.645 2.787 2.645 1.251 0 2.262-.707 2.459-1.353h2.744c-.878 2.464-2.744 3.514-5.312 3.514-3.58 0-5.795-2.262-5.795-5.494 0-3.132 2.348-5.514 5.795-5.514 3.862 0 5.728 2.99 5.508 6.202h-8.186ZM99.6 15.18c-.286-1.454-.965-2.222-2.481-2.222-1.976 0-2.548 1.414-2.591 2.222H99.6ZM104.881 7.1h3.117v14.422h-3.117V7.1ZM110.454 11.08h2.964v1.333h.043c.746-1.11 1.976-1.616 3.38-1.616 3.556 0 5.159 2.645 5.159 5.617 0 2.788-1.667 5.393-4.983 5.393-1.361 0-2.657-.545-3.403-1.576h-.043v4.97h-3.117V11.08Zm8.429 5.252c0-1.657-.725-3.373-2.721-3.373-2.042 0-2.701 1.677-2.701 3.373 0 1.696.702 3.312 2.721 3.312 2.042 0 2.701-1.616 2.701-3.312Z" fill="#fff"/></svg>