<svg xmlns="http://www.w3.org/2000/svg" viewBox="0 0 120 120" style="enable-background:new 0 0 120 120" xml:space="preserve" class="injected-svg js-svg-injector" data-parent="#icon114"><style>.icon-27-0{fill:none;stroke:#377dff}.icon-27-1{fill:none;stroke:#bdc5d1}</style><path class="icon-27-0 fill-none stroke-primary" stroke-width="3" stroke-linecap="round" stroke-linejoin="round" stroke-miterlimit="10" d="M75 109.411H44.9v-11.4H75z"/><path class="icon-27-1 fill-none stroke-gray-400" stroke-width="3" stroke-linecap="round" stroke-linejoin="round" stroke-miterlimit="10" d="M82.9 116.1V91.3H37.1v24.8"/><path class="icon-27-0 fill-none stroke-primary" stroke-width="3" stroke-linecap="round" stroke-linejoin="round" stroke-miterlimit="10" d="M96.3 116.5H23.7"/><path class="fill-gray-400 stroke-gray-400" opacity=".5" stroke-width="3" stroke-linecap="round" stroke-linejoin="round" stroke-miterlimit="10" style="fill:#bdc5d1;stroke:#bdc5d1" d="m65 22 5.3 10.9 12 1.7-8.7 8.4 2.1 12L65 49.3 54.3 55l2-12-8.6-8.4 11.9-1.7z"/><path class="fill-primary stroke-primary" stroke-width="3" stroke-linecap="round" stroke-linejoin="round" stroke-miterlimit="10" style="fill:#377dff;stroke:#377dff" d="m60 17.1 5.3 10.8 12 1.8-8.6 8.4 2 11.9L60 44.4 49.3 50l2-11.9-8.6-8.4 12-1.8z"/><path class="fill-white" style="fill:#fff" d="m60 26.3 2.4 4.8 5.3.7-3.9 3.7.9 5.3-4.7-2.5-4.7 2.5.9-5.3-3.9-3.7 5.3-.7z"/><path class="icon-27-0 fill-none stroke-primary" stroke-width="3" stroke-linecap="round" stroke-linejoin="round" stroke-miterlimit="10" d="M41.8 58.9c.6 1 1.4 2.1 2.3 3.1"/><path class="icon-27-1 fill-none stroke-gray-400" stroke-width="3" stroke-linecap="round" stroke-linejoin="round" stroke-miterlimit="10" d="M53.9 91.2v-1.9c0-5.5-2.6-10.6-7-13.9C36 67.1 24.7 53.6 24.7 32V3.5H94L93.9 32c0 18.4-10.8 35.4-21.9 43.5-4.5 3.3-7.2 8.5-7.2 14.1v1.6"/><path class="icon-27-1 fill-none stroke-gray-400" stroke-width="3" stroke-linecap="round" stroke-linejoin="round" stroke-miterlimit="10" d="M30.8 57.4C10.5 57.4 1.2 40.6 1.2 20v-4.5c0-1.9 1.1-3.5 2.5-3.5h21M87.5 57.4c21.7 0 31.3-16.8 31.3-37.4v-4.5c0-1.9-1.1-3.5-2.5-3.5h-22"/><path class="icon-27-0 fill-none stroke-primary" stroke-width="3" stroke-linecap="round" stroke-linejoin="round" stroke-miterlimit="10" d="M33.6 32.2c.3 6.6 1.6 13.2 4.1 19.1"/></svg>